<?xml version="1.0" encoding="utf-8"?>
<!-- Generator: Adobe Illustrator 22.0.1, SVG Export Plug-In . SVG Version: 6.00 Build 0)  -->
<svg version="1.1" id="Capa_1" xmlns="http://www.w3.org/2000/svg" xmlns:xlink="http://www.w3.org/1999/xlink" x="0px" y="0px"
	 viewBox="0 0 284.9 284.9" style="enable-background:new 0 0 284.9 284.9;" xml:space="preserve">
<style type="text/css">
	.st0{fill:#4D4D4D;}
</style>
<g>
	<path class="st0" d="M191.4,161l-46.7-46.7c-0.7-0.7-1.4-1-2.3-1c-0.9,0-1.6,0.4-2.3,1L93.5,161c-0.7,0.7-1,1.4-1,2.3
		c0,0.9,0.4,1.6,1,2.3l5,5c0.7,0.7,1.4,1,2.3,1s1.6-0.4,2.3-1l39.4-39.4l39.4,39.4c0.7,0.7,1.4,1,2.3,1c0.9,0,1.6-0.4,2.3-1l5-5
		c0.7-0.7,1-1.4,1-2.3C192.4,162.4,192.1,161.7,191.4,161z"/>
</g>
</svg>
